# xmcd
#
# Track frame offsets:
#	225
#	14029
#	27607
#	65111
#	75990
#	89417
#	106069
#	119722
#	133600
#	149953
#
# Disc length: 2195 seconds
#
# Revision: 0
# Processed by: cddbd v1.5.2PL0 Copyright (c) Steve Scherf et al.
# Submitted via: EasyCDDAExtractor 16.0.0.1
#
DISCID=9808900a
DTITLE=임방울 - 임방울 소리 선집
DYEAR=1900
DGENRE=
TTITLE0=가난타령
TTITLE1=고고천변
TTITLE2=군사 설움타령
TTITLE3=녹수청산
TTITLE4=명기명창
TTITLE5=쑥대머리
TTITLE6=옥중상봉가
TTITLE7=추억
TTITLE8=토끼화상
TTITLE9=片時春
EXTD=
EXTT0=
EXTT1=
EXTT2=
EXTT3=
EXTT4=
EXTT5=
EXTT6=
EXTT7=
EXTT8=
EXTT9=
PLAYORDER=
